# xmcd
#
# Track frame offsets: 
#        150
#        14436
#        30827
#        45664
#        57035
#        70762
#        85026
#        98133
#        109795
#        126232
#        145429
#        160126
#        174536
#        189597
#        204657
#        224348
#        241787
#        257774
#        272998
#        287524
#        304019
#
# Disc length: 4263 seconds
#
# Revision: 0
# Processed by: cddbd v1.5.1PL0 Copyright (c) Steve Scherf et al.
# Submitted via: ExactAudioCopy v0.90b4
#
DISCID=2710a515
DTITLE=Fausto Papetti - Grand Collection
DYEAR=1999
DGENRE=Blues
TTITLE0=I Just Called To Say I Love You
TTITLE1=Bossa For My Lady
TTITLE2=Mask The Knife
TTITLE3=Love Me From "Goodfather"
TTITLE4=Adagio Di Albioni
TTITLE5=The Windmiles Of You Mind
TTITLE6=Love Story
TTITLE7=Strangers In The Night
TTITLE8=This Is Not America
TTITLE9=Reality
TTITLE10=Theme Frome Paradise
TTITLE11=Women In Love
TTITLE12=Emanuelle
TTITLE13=Your Eyes
TTITLE14=Ditencello Vuje
TTITLE15=Aranjues Mon Amour
TTITLE16=Feelings
TTITLE17=Hill Street Blues
TTITLE18=Part - Time Lover
TTITLE19=Yesterday
TTITLE20=Bonus Track
EXTD=
EXTT0=
EXTT1=
EXTT2=
EXTT3=
EXTT4=
EXTT5=
EXTT6=
EXTT7=
EXTT8=
EXTT9=
EXTT10=
EXTT11=
EXTT12=
EXTT13=
EXTT14=
EXTT15=
EXTT16=
EXTT17=
EXTT18=
EXTT19=
EXTT20=
PLAYORDER=
